<?xml version="1.0" encoding="UTF-8"?>
<svg id="Layer_1" xmlns="http://www.w3.org/2000/svg" version="1.1" viewBox="0 0 100 100">
  <!-- Generator: Adobe Illustrator 29.0.1, SVG Export Plug-In . SVG Version: 2.1.0 Build 192)  -->
  <rect x="7.01" y="60.6" width="85.97" height="2.19"/>
  <rect x="7.01" y="17.36" width="85.97" height="2.19"/>
  <rect x="7.01" y="20.89" width="85.97" height=".84"/>
  <rect x="7.01" y="58.41" width="85.97" height=".67"/>
  <path d="M39.65,82.64h-.67v-1.85c-1.41-.2-.43,1.11-.84,1.85h-.67v-1.85h-.67v1.85h-.67c-.33-.43.03-.8.01-1.26-.02-.35-.45-1.1.08-1.25.3-.08.54.13.8.12.15,0,.33-.14.54-.14.41,0,.59.32.67.32.09,0,.9-.69,1.35-.14l.08,2.36Z"/>
  <polygon points="54.63 82.64 53.95 80.12 54.79 80.11 55.05 81.63 55.48 80.12 56.31 80.11 56.56 81.63 56.99 80.12 57.65 80.12 56.98 82.64 56.14 82.64 55.97 81.29 55.47 82.64 54.63 82.64"/>
  <path d="M28.89,82.64c-1.16-.88-.75-2.81.84-2.52.05-.24-.11-1.15.09-1.18.24-.03.51.02.75,0l.17,3.7h-.67l-.25-.34-.25.34h-.67ZM29.31,80.62c-.32.09-.29.8-.23,1.07.6.74,1.02-.11.8-.8-.11-.24-.32-.34-.57-.27Z"/>
  <path d="M25.02,82.64h-.84l-.18-.83-.09-.02-1.07.02-.18.83h-.67l1.03-3.26c.33-.47.77-.37,1.03.11.43.84.57,2.23.97,3.15ZM23.84,81.29c-.12-.37-.08-1.01-.5-1.18l-.17,1.18h.67Z"/>
  <path d="M76.16,82.64c-1.04-1.04-.67-2.82,1.01-2.52v-1.18s.67,0,.67,0c.09.1-.07,2.32,0,2.78.05.35.54.49.17.92h-.5l-.25-.33-.42.33h-.67ZM77.17,80.62c-.98-.4-1.09,1.2-.59,1.35.75.21.6-.89.59-1.35Z"/>
  <path d="M51.77,82.64c-.49-.23-.48-.69-.08-1.01.31.45.77.34,1.26.34.14-.7-.52-.68-.93-1.01-1.15-.93-.15-2.04,1.15-1.82.56.1.48.27.45.8-.12.12-1.17-.48-1.35.09-.14.47,1.3.56,1.49,1.38.15.67-.38.73-.65,1.23h-1.35Z"/>
  <path d="M25.52,82.64v-2.52s.58,0,.58,0l.18.35c.26-.37.68-.45,1.1-.26l.31.36.03,2.08h-.67c-.46-.47.08-1.27,0-1.59s-.81-.38-.84-.17c-.07.55.05,1.2,0,1.76h-.67Z"/>
  <path d="M42.34,82.64h-.5l-.25-.34-.25.34h-.67l-.26-1.19,1.27-.33c-.03-1.04-1.13-.11-1.18-.17l-.09-.5c.29-.48,1-.35,1.5-.31l.36.31.08,2.19ZM41.5,81.63h-.5v.34h.5v-.34Z"/>
  <path d="M64.38,82.64c-.32-.42-.69-.81-.65-1.39.13-1.19,1.7-1.66,2.2-.58.41.9-.28.78-.96.79-.14,0-.58-.08-.42.25.29.59.75.36,1.26.25l-.08.67h-1.35ZM65.23,80.62h-.42s-.25.34-.25.34h.67s0-.34,0-.34Z"/>
  <path d="M31.91,82.64c-.74-.46-.81-1.24-.59-2.02.86-.99,2.36-.67,2.11.84h-1.51c-.07.36.24.47.5.6l.76-.1-.08.67h-1.18ZM32.76,80.96l-.25-.34h-.42s0,.34,0,.34h.67Z"/>
  <path d="M74.98,82.64h-.67c-.05-.56.07-1.21,0-1.76-.02-.19-.73-.16-.82.18-.15.53.18,1.1-.02,1.58h-.67v-2.52c.66.19,1.24-.06,1.85.08l.31.36.03,2.08Z"/>
  <path d="M72.12,82.64h-.5l-.25-.33-.42.33h-.67c-.38-.43-.44-.72-.18-1.24l1.19-.27v-.5s-1.18.17-1.18.17v-.5c.42-.16,1.69-.4,1.83.09.11.38-.05.92.02,1.33.05.35.54.49.17.92ZM71.28,81.63h-.67v.34h.67v-.34Z"/>
  <path d="M61.36,82.64c0-.77.72-1.38,1.18-1.94l-1.18-.08c.04-.88,1.39-.38,2.02-.5.18.7-.99,1.41-1.01,1.93.4.28,1.19-.3,1.01.59h-2.02Z"/>
  <path d="M60.18,82.64c-.7-.41-.48-1.23-.5-1.92l-.35-.18c.22-.53.48-1.09,1.18-.92l.02.48.66.27-.68.35v1.25s.68,0,.68,0l-.34.67h-.67Z"/>
  <path d="M43.52,82.64c-.53-.54-.3-1.24-.33-1.92l-.31-.12c-.2-.57.15-.41.25-.52.17-.2.07-.39.47-.47.69-.14.31.37.44.5h.49s0,.51,0,.51c-.79-.08-.79.56-.6,1.19.22.3.99-.11.43.83h-.84Z"/>
  <path d="M45.54,82.64c-.53-.54-.3-1.24-.33-1.92l-.31-.12-.04-.4.3-.12.06-.45.65-.19v.67s.67,0,.67,0v.5s-.67,0-.67,0v1.35s.67,0,.67,0l-.34.67h-.67Z"/>
  <polygon points="68.59 82.64 68.59 78.94 69.43 78.94 69.26 82.64 68.59 82.64"/>
  <polygon points="66.57 82.64 66.57 80.11 68.09 80.12 68.08 80.78 67.58 80.86 67.41 82.64 66.57 82.64"/>
  <polygon points="34.1 82.64 34.1 80.11 34.68 80.11 34.77 80.45 35.62 80.12 35.61 80.78 34.79 80.97 34.77 82.64 34.1 82.64"/>
  <rect x="58.16" y="80.11" width=".67" height="2.52"/>
  <path d="M44.2,28.47c1.69,3.92,4.05,7.63,5.22,11.78.3,0,.18-.74.16-.92-.06-.44-.26-1.01-.41-1.44-.85-2.41-2.49-4.75-3.45-7.15-.12-.39.45-.32.58-.08,1.11,1.74,1.72,4.08,2.8,5.78.07.12.16.28.31.28.11-.25-.17-.52-.17-.59v-7.66h5.05v21.03h-4.71l-3.2-6.73c-.46.03,0,.7,0,.76v8.16h-5.05v-1.18h3.87v-8.66c0-.42-.32-1.39-.2-1.99l-1.15-2.47c.55,3.99.27,8.07.34,12.11h-5.05v-21.03h5.05Z"/>
  <path d="M87.27,28.47l-.5,4.04h-7.23v4.04h1.01v-3.03h7.23l.34-3.03h1.18s-.34,4.04-.34,4.04h-7.23v2.02h4.21v3.45s-.23.25-.25.25h-6.14v5.22h1.01v-4.21h6.22v-2.44c.27-.39.75-.23,1.18-.25v3.7h-6.22v3.2h5.38v4.04h-12.79v-21.03h12.95Z"/>
  <path d="M17.45,43.27v6.22h-5.22v-21.03h8.5s.11.12.21.13c2.62.34,4.49,1.38,5.19,4.07.48,1.85.46,5.29-.39,7.02-1.5,3.06-5.23,3.46-8.28,3.58ZM17.45,32v7.91l1.01-.17v-6.73l2.36.17c.06-.28-.15-.42-.33-.59-.75-.7-2.07-.58-3.03-.59ZM19.46,34.19v5.38c2.01-.66,2.06-3.64,1.67-5.37h-1.67Z"/>
  <polygon points="72.46 28.47 71.79 32.5 67.41 32.5 67.41 49.5 62.2 49.5 62.2 34.69 59.51 34.69 59.51 33.51 62.2 33.51 62.2 32.5 57.32 32.5 57.32 28.47 72.46 28.47"/>
  <rect x="30.06" y="28.47" width="5.22" height="21.03"/>
  <path d="M19.46,51.68h-5.05v-1.18h4.04v-6.22c1.77-.19,3.59-.19,5.26-.88,2.23-.91,3.46-2.88,3.66-5.26.17-1.97.05-4.36-1.01-6.06.15-.26.39.03.51.17,2.32,2.57,2.37,8.8-.25,11.19-1.17,1.07-3.48,1.72-5.04,1.86-.68.06-1.61-.23-2.11.25v6.14Z"/>
  <path d="M73.47,30.65v3.79s-.23.25-.25.25h-3.62v16.74s-.23.25-.25.25h-4.96v-1.18h4.04v-16.99h4.37c.07-.87.29-1.73.34-2.61.02-.33-.04-.27.33-.25Z"/>
  <polygon points="37.47 30.48 37.47 51.68 32.25 51.68 32.25 50.5 36.29 50.5 36.29 30.48 37.47 30.48"/>
  <path d="M51.26,50.5h4.04v-20.02c.43.02.9-.14,1.18.25v20.69s-.23.25-.25.25h-4.37l-.59-1.18Z"/>
  <polygon points="89.12 47.64 89.12 51.68 76.5 51.68 76.5 50.5 88.11 50.5 88.11 47.64 89.12 47.64"/>
  <path d="M39.23,66.66s.16.14.34.17c.61.08,1.05,0,1.66.36,1.14.68,1.12,3.16-.3,3.51l-.1.34c1.93.27,1.92,3.33.29,4.08-.12.05-.83.3-.88.3h-3.87s-.25-.23-.25-.25v-8.24s.23-.25.25-.25c.91,0,1.98-.08,2.86,0ZM38.31,70.19l1.07-.03c.56-.16.62-1.42.28-1.74l-1.35-.25v2.02ZM38.31,73.89c1.58.35,2.5-.9,1.35-2.11l-1.35-.08v2.19Z"/>
  <path d="M75.4,66.66s.16.14.34.17c.6.08,1.07,0,1.66.36,1.11.68,1.14,3.17-.3,3.51l-.1.34c1.81.33,1.85,3.05.5,3.95-.45.3-.83.18-1.26.43h-3.7s-.25-.23-.25-.25v-8.24s.23-.25.25-.25c.91,0,1.98-.08,2.86,0ZM74.48,70.19l1.07-.03c.56-.16.62-1.42.28-1.74l-1.35-.25v2.02ZM74.48,73.89c1.58.35,2.5-.9,1.35-2.11l-1.35-.08v2.19Z"/>
  <path d="M67.08,66.66v6.65s.19.26.2.39c.54.28,1.15.37,1.46-.25l.1-6.63,2.11-.16v6.98s-.29.71-.36.82c-.84,1.4-4.26,1.48-5.17.17-.27-.39-.49-1.18-.53-1.65-.17-1.92.12-4.1.02-6.04l.14-.2,2.03-.08Z"/>
  <path d="M30.9,66.66v6.48s.23.37.2.56c.55.26,1.15.38,1.46-.25l.1-6.63,2.11-.16v6.98c0,.31-.56,1.12-.85,1.34-1.36,1-4.43.84-5-1.04s0-4.94-.19-7.01l.14-.2,2.03-.08Z"/>
  <path d="M24.01,72.88v2.52h-2.19v-8.5s.23-.25.25-.25h2.69c.07,0,1.09.2,1.27.24,2.15.59,2.19,4.25.49,5.39-.69.46-1.71.47-2.52.59ZM24.01,71.37c1.72.31,1.86-1.86,1.19-2.95l-1.19-.08v3.03Z"/>
  <path d="M48.91,72.71c.3-.83,1.09-1.95,2.08-1.66.88.26.48,2.2-.74,1.58-.33-.17-.25-.52-.42-.76l-.77,1.09,1.61,1.61c.9.08.86-.94,1.6-1.02-.82,2.17-2.57,2.76-4.14.85h-.14c-1,.96-2.36,1.68-3.63.74-1.65-1.21-.57-3.45.99-4.13.17-.15-.4-1.13-.46-1.45-.17-.99.27-2.4,1.4-2.57,2.49-.37,2.38,2.32.77,3.44l1.83,2.27ZM46.25,67.53c-.07.07-.19.45-.2.57-.03.4.48,2.06.92,1.92.73-.52,1.34-1.68.6-2.44-.32-.33-1.02-.35-1.32-.05ZM45.63,71.2l-.85.84c-.3.58.99,2.41,1.6,2.62.44.16,1.49-.31,1.34-.84l-2.09-2.63Z"/>
  <path d="M57.98,66.83v1.67c-1.7-.5-2.7-.41-2.86,1.59-.18,2.34-.16,4.68,2.87,3.46v1.67c-4.1,1.3-5.39-1.48-5.05-5.12.27-2.9,2.32-4.01,5.04-3.27Z"/>
  <path d="M61.69,73.72h2.52l-.17,1.68h-4.54v-8.75c.69.1,1.66-.25,2.19.25v6.81Z"/>
  <rect x="47.56" y="80.96" width="2.69" height=".5"/>
  <path d="M58.83,78.94c.12,1.12-.8,1.12-.67,0h.67Z"/>
</svg>