<svg xmlns="http://www.w3.org/2000/svg" viewBox="0 0 100 100" fill="#ffffff" aria-hidden="true" focusable="false">
  <path d="M76.56,69.13c.21.21.25,2.2.32,2.64.02.1.03.23.06.32.03.11.16.23.14.35-.01.09-.15.21-.19.33-.09.32-.1.72-.2,1.07-.22.74-.79,1.37-1.35,1.88l1.56,1.64c.46.32,1.01.77,1.61.58,1.25-.39,1.53-2.54,1.04-3.56-.29-.6-.87-1.16-1.45-1.49-.17-.1-.76-.27-.78-.45-.04-.41,1.24-.75,1.27-1.06.02-.17-.49-1.01-.59-1.29s-.26-1.12-.37-1.24c-.26-.28-.78-.02-1,.21.21-.58,1.07-1.32,1.68-.89.2.14.6.68.71.91.14.28.39,1.21.62,1.34.07.04.15.05.23.05.13.14-.38.45-.47.53-.73.67-.3.73.08,1.37.57.97.94,2.52.71,3.63-.43,2.11-2.49,3.48-4.47,2.16-.63-.42-1.24-1.6-1.86-1.8-.42-.14-.79.05-.66.53.39.14.67,0,.85.47.25.63-.33,1.21-.91.83-.5-.33-.47-.81-.43-1.36.04-.51.36-1.09.85-1.32.68-.32,1.11-.16,1.75.15.16-.52.38-.97.46-1.51.06-.42.15-1.08.09-1.53-.01-.08-.08-.06-.09-.09-.05-.2.01-.6,0-.84-.07-.81-.24-1.61-.68-2.29-.24-.37-.73-1.18-1.18-.6-.36.46-.27,1.1.04,1.56.71,1.05,1.65,1.67,1.07,3.16-.34.86-1.38,1.56-1.88.44.94.64,1.52-.26.94-1.13-.43-.64-.81-.83-1.11-1.66-.14-.39-.26-.93-.17-1.35,0-.03.07-.03.08-.06.14-.59.24-1.01.75-1.41.99-.77,2.03,0,2.77.68.06.05.14.06.18.1Z"/>
  <path d="M19.2,71.77s.07.16.14.13c.13-.06.66-.93.83-1.09.24-.22.82.08,1.06.22.47.28.7.57.86,1.09.02.07.11.3.11.32.05.34.05,1.57,0,1.92-.01.08-.08.06-.09.09-.07.28.07.48.09.63.07.53-.03,1.23.04,1.79.04.22.46.4.36.62l-1.2.97c-.19.09-.49.2-.51-.11-.05-.86.09-1.77-.06-2.63-.1-.85.14-2.03,0-2.84-.03-.18-.44-.66-.6-.72-.11-.05-.64-.09-.77-.06-.18.03-.35.22-.37.39-.06.64.08,1.31.04,1.96.12.35.13.98.13,1.4,0,.81-.08,1.61-.05,2.42-.11.05-.11.18-.2.24-.18.12-.62.08-.83.03-.27-.06-.36-.15-.38-.43-.15-1.66.17-3.5.03-5.18-.02-.1-.25-.69-.3-.74-.19-.19-.95-.37-1.18-.2-.21.16-.3.43-.34.69-.15,1.23.06,2.89.12,4.16.02.39,0,.54.08.91.08.34.15.72-.28.77-.17.02-.86.06-.99.02-.4-.12-.27-.31-.26-.59.02-1.49-.02-2.98,0-4.47,0-.37.14-.97-.03-1.33-.04-.08-.12-.12-.15-.19-.24-.41.3-.55.54-.73.22-.16.69-.64.94-.59.29.06.01.53,0,.68-.02.24.22.45.46.38.1-.03.61-.61.75-.74.1-.09.37-.32.49-.32.1,0,.84.22.92.28.17.12.38.63.58.84Z"/>
  <path d="M40.04,72.66s-.2-.21-.24-.25c-.27-.21-.44-.1-.22-.56.07-.15.65-.95.76-.98.52-.18.68.8,1.02,1,.23.02.75-1.06,1.01-1.2.38-.21,1.01.18,1.28.46.12.13.33.51.5.52.68-.29.45-1.4,1.46-.82,1.59.91,1.6,2.97,1.4,4.58-.14,1.12-.37,1.43-1.17,2.15-.17.15-1.09,1.04-1.2,1.06-.19.03-.31-.16-.46-.25-.1-.06-.22-.08-.32-.15-.26-.18-.46-.52-.7-.7-.5.09-.76,1.04-1.27,1.02-.45-.02-1.03-.48-1.28-.85-.7-1.03-.42-3.21-.45-4.44,0-.13-.05-.51-.1-.6ZM44.16,72.1c-.14.13-.11.93-.1,1.16.02.46.1.94.13,1.4.04.66-.07,1.44.26,2.03.23.4.83,1.01,1.11.31.19-.47.2-2.32.16-2.9-.03-.63-.18-1.46-.73-1.87-.18-.13-.66-.31-.84-.14ZM42.97,76.12s-.05-.85-.06-.99c-.02-.69.06-1.45-.05-2.12-.09-.58-.48-.84-1.05-.87-.25-.01-.37.03-.42.29-.07.34-.02.64-.02.96,0,.89-.1,2.64.43,3.35.17.22.67.58.95.58.21,0,.15-.14.2-.26.01-.04.07-.03.08-.06.02-.1.02-.68,0-.8,0-.08-.07-.06-.07-.07Z"/>
  <path d="M35.54,71.92c.15.09.28-.08.38-.19.16-.18.48-.78.64-.85.1-.04.56.12.68.17,1.81.77,1.72,3.52,1.62,5.14-.09,1.53-.18,1.49-1.06,2.64-.17.23-.59.96-.84,1-.05,0-.1,0-.15,0-.08-.08.16-.62.21-.74.27-.57.47-.9.51-1.58.06-.94.07-1.99.09-2.93,0-.62-.08-1.55-.64-1.91-.51-.33-1.48-.63-1.45.3.05,1.48.06,2.98.09,4.46,0,.18.03.94-.02,1.04-.08.15-.83.14-1,.11-.62-.13-.35-.81-.34-1.23.04-1.23,0-2.51,0-3.75,0-1.79-.03-3.6-.04-5.4,0-.29-.13-.71.13-.98.12-.13.76-.17.96-.14.1.01.23.05.27.16l-.03,4.68Z"/>
  <path d="M13.18,77.68c-.12.16-.32.53-.44.65-.19.18-.43-.11-.55-.26s-.34-.58-.45-.66c-.15-.11-.33.06-.45.15-.44.35-.88,1.22-1.55.86-1.67-.89-1.33-2.81-1.35-4.39,0-.11-.05-.22-.05-.34,0-.46.15-1.15-.09-1.53-.1-.16-.29-.2-.25-.43.03-.19.82-.63,1.02-.81.12-.11.21-.31.35-.37.17-.08.31-.04.33.16.13,1.04-.1,2.37,0,3.45.15,1.02-.22,2.32.92,2.86s1.01-.77,1-1.51c-.02-1.36-.1-2.61-.04-3.99,0-.23-.07-.88.1-1,.08-.06.84-.06.98-.04.19.03.22.14.24.31.12,1.33-.03,2.98-.05,4.34,0,.41-.01.92.05,1.32s.49.4.64.72c0,.07-.18.33-.24.4-.04.05-.11.07-.13.1Z"/>
  <path d="M4.23,73.98c.28-.39.65-.74.94-1.12.15-.2.56-.71.49-.94-.01-.04-.04-.07-.08-.09-.26-.15-1.66-.04-2.07-.06-.1,0-.58-.05-.62-.07-.04-.02-.06-.06-.08-.09-.05-.16.1-1.04.19-1.2.15-.27.54-.16.81-.17.79-.05,1.77-.11,2.56-.05.23.02.55.04.51.34-.02.12-.29.97-.35,1.1-.18.39-.78.91-1.02,1.32-.47.79.38.8.79,1.22.28.28.65,1,.75,1.38.25.99.19,3.42-.62,4.14-.45.39-1.36,1.02-1.88,1.36-.2.13-.29.23-.53.07-.13-.09-.8-.76-.9-.89-.21-.29.14-.56.36-.75.75-.63.67-.16,1.19.26s.68,0,.85-.47c.4-1.07.64-3.32-.48-4.03-.2-.12-1.02-.39-1.07-.5-.12-.25.11-.56.25-.75Z"/>
  <path d="M94.06,72.4c-.29.24-.28,1.23-.27,1.58.05,1.4.22,2.8.21,4.2.02.38-.9.42-1.12.31-.28-.14-.18-.76-.2-1.03-.05-.68-.1-1.36-.13-2.04-.03-.75.08-1.85-.17-2.55-.07-.2-.26-.37-.26-.55,0-.33.53-.7.75-.91.18-.17.27-.45.59-.38.22.04.16.46.19.61,0,.04.21.22.31.19.24-.07.47-.88.91-.92.56-.05,1.14.65,1.24,1.16.27,1.37.13,2.78.22,4.16.01.23.03.57.19.74.13.14.47.22.22.51-.13.15-.68.57-.86.67-.51.28-.61.09-.65-.44-.12-1.47.13-3.12-.09-4.58-.01-.1-.05-.2-.1-.29-.12-.2-.77-.64-.99-.46Z"/>
  <path d="M66.35,71.92c.08.01.13,0,.19-.04.25-.15.57-.72.83-.92.32-.26.59-.08.89.13.42.3.77.69.81,1.23.12,1.39-.08,2.97-.03,4.37,0,.11.04.27.1.36.07.1.36.19.35.32-.02.18-.84.82-.96,1.04-.7.22-.54-.24-.57-.7-.06-.95-.07-1.94-.09-2.89-.01-.54.07-1.32,0-1.82-.11-.64-1.35-1.14-1.54-.36s-.02,1.75.02,2.56c.01.35-.02.71,0,1.07s.25,2.13.08,2.31c-.12.12-.84.13-1,.06-.17-.07-.21-.25-.23-.41-.15-1.56.08-3.38-.04-4.98,0-.12-.04-.37-.08-.47-.07-.18-.35-.35-.34-.54.02-.25.49-.52.67-.69s.61-.72.87-.66c.02,0,.07.1.07.11v.91Z"/>
  <path d="M50.03,74.6c-.24,0-.43.22-.58.38-.15.17-.74,1-.77,1.19-.06.42,1.14,1.03,1.18,1.26.03.2-.4.82-.55.98-.11.11-.23.22-.39.18-.15-.03-.66-.64-.82-.8-.25-.25-.65-.39-.48-.82.23-.58.64-.73.58-1.46-.11-1.37-.51-2.29.07-3.68.35-.85.74-1.41,1.74-1.02.91.36,1.13.96,1.18,1.88s-.05,1.97,0,2.94c.02.39.04.96.23,1.3.15.26.37.26.32.61-.04.29-.6.94-.91.92-.12,0-.32-.22-.4-.32-.09-.12-.44-.69-.43-.8,0-.08.07-.17.09-.3.03-.24-.04-.46-.05-.68,0-.59.08-1.18,0-1.77ZM48.36,75.24c.66-.18,1.14-.79,1.38-1.4s.26-1.46-.6-1.53c-.66-.05-.79.46-.87,1-.09.66-.02,1.28.08,1.93Z"/>
  <path d="M57.94,73.82c.2-.31.51-.86.66-1.19.03-.07.11-.27.07-.32l-2.23-.09c-.23-.13-.11-.75-.06-.98.11-.52.27-.47.77-.5.61-.04,1.58-.05,2.17,0,.13.01.37.04.43.17.07.17-.03.82-.11.99-.22.48-1.25,1.34-1.19,1.83.02.13.63.6.77.77.3.36.68,1.06.78,1.51.2.88.02,2.99-.58,3.71-.21.26-1.13,1.04-1.42,1.26-.08.06-.43.29-.5.29-.15,0-.68-.55-.79-.69s-.26-.29-.2-.49c.06-.17.59-.68.77-.68.27,0,.73.6,1.02.68.2-.04.45-.89.49-1.08.2-.82.29-2.02-.09-2.8-.11-.23-.43-.69-.66-.79-.4-.18-1.19.06-.79-.71.13-.26.5-.62.68-.88Z"/>
  <path d="M82.02,70.61c.87-.17,1.69.95,1.86,1.7.28,1.21-.17,3.97.39,4.79.13.19.44.32.26.6-.04.06-.6.53-.65.54-.42.09-.66-.53-.97-.54s-.58.63-.89.63c-.37,0-1.22-.69-1.29-1.05-.09-.43.19-.7.32-1.06.4-1.08-.21-2.77-.06-3.97.06-.5.49-1.53,1.04-1.64ZM81.8,75.18c.22-.21.82-1.12.92-1.4.18-.52.05-1.3-.59-1.39-1.01-.14-.9.4-.87,1.21.02.39.06,1.06.14,1.44.02.1.05.19.08.28.08.05.26-.08.32-.14ZM82.79,74.52c-.32-.21-.87,1.02-.96,1.22-.02.05-.08.05-.09.09-.14.32-.03.49.17.71.11.13.8.79.92.78.25-.3.11-.73.15-1.08l-.18-1.72Z"/>
  <path d="M28.09,68.7c-.16.19-.05.38-.05.56,0,2.72-.04,5.44.04,8.17,0,.08.08.04.09.12.01.11.01.91-.02.95-.1.13-.73.12-.9.1-.2-.02-.3-.12-.32-.32-.05-.45.04-1,.03-1.45,0-.36-.07-.79-.08-1.15-.02-1.08.1-2.4-.04-3.44-.04-.31-.45-.63-.47-.85s.26-.4.35-.63c.28-.7.02-1.59.22-2.21.1-.31.83-1.01,1.1-1.25.17-.15.51-.48.72-.38.24.32,1.13.77,1.11,1.19,0,.21-.59.83-.8.87-.08.01-.1,0-.17-.03-.23-.08-.61-.49-.81-.25Z"/>
  <path d="M31.08,76.37c.25.42.68.87,1.2.91.32.03.59-.11.87-.04.01.03,0,.06,0,.1-.02.1-.47.94-.56,1.06-.36.51-1.44.2-1.85-.14-1.51-1.24-1.48-3.46-1.34-5.25,0-.13.02-.2.07-.32.1-.26,1.28-1.39,1.55-1.6.25-.19.61-.39.92-.23.14.08.91.7,1.04.83.21.2.14.31.05.56-.13.36-.4,1.03-.88.77-.33-.18-.84-.84-1.22-.91-.28-.05-.37.49-.38.68-.07.88.08,2.82.53,3.58Z"/>
  <path d="M87.71,71.18c.35.37.56.58.42,1.15-.05.22-.32.76-.56.81-.43.08-.64-.77-.91-.61-.2.4.03.92-.04,1.36-.03.67-.2,2.4.3,2.89.28.27.84.12.92.28.09.19-.37.78-.51.94-.21.24-.5.58-.83.36-.13-.08-.62-.52-.73-.63-.25-.28-.33-.66-.38-1.03-.14-1.05.03-2.18-.05-3.23-.04-.6-.21-.86-.63-1.26l-.02-.1c.13-.21.27-.41.41-.61.08-.11.44-.59.53-.62.37-.13.42.38.62.62.43.51.64-.53.94-.63.26-.08.35.17.5.32Z"/>
  <path d="M54.4,72.4c-.12-.1-.38-.09-.41.1-.05.24.01.66,0,.94-.03.78-.1,1.6-.05,2.38.03.46.2,1.27.76,1.37.15.03.65-.06.65.12-.1.19-.25.38-.38.54-.1.12-.36.42-.47.52-.35.32-.56.11-.87-.15-.86-.7-.88-1.35-.92-2.4-.04-.91.12-2.11,0-2.97-.05-.39-.57-.68-.55-.89.02-.16.83-1.03,1-1.04.32-.02.55.65.74.83.04.04.07.08.14.06.28-.24.57-1.29,1.05-.91.08.06.55.68.62.79.07.12.17.28.14.42-.02.1-.5.83-.59.91-.45.42-.68-.45-.86-.6Z"/>
  <path d="M91.13,78.41c-.27.24-.62.07-.91-.06-.72-.33-1.25-.91-1.47-1.68-.28-.97-.33-3.13.03-4.07.21-.54.93-1.31,1.43-1.59.26-.15.47-.05.66.15.17.17.59.7.71.9.05.09.12.18.11.3-.02.19-.55.86-.7,1.05-.29.35-1.25,1.29-1.32,1.66-.11.59.45,1.64,1.01,1.89.39.18.77.12,1.17.19.04.09.02.17-.01.25-.03.07-.65.97-.71,1.02ZM89.69,72.18c-.33.06-.21.6-.2.82,0,.18-.06.91.19.91.24-.05.79-.75.79-.96s-.53-.82-.77-.78Z"/>
  <path d="M63.9,72.63c-.24.3-.52.61-.77.91-.3.35-.84.84-1.06,1.19-.24.4-.11.85.05,1.26.28.69.75,1.17,1.52,1.25.57.05.94-.15.41.58-.12.17-.6.7-.77.76-.36.11-.99-.3-1.26-.53-1.2-1.04-1.38-2.87-1.3-4.36.03-.56.1-1.03.5-1.46.27-.29.94-.82,1.28-1.07.23-.17.39-.36.66-.15.14.1.82.85.89.99.15.3.06.41-.14.64ZM62.2,72.1c-.15.01-.31.25-.33.39-.03.29-.04,1.25,0,1.53.04.24.22.36.42.17.16-.15.48-.56.61-.75.09-.12.18-.23.23-.37-.12-.19-.77-1-.95-.98Z"/>
  <path d="M81.75,68.49c.15-.19.45-.43.59-.09.11.26-.05.56-.17.78-.13.25-.33.56-.62.6-.15-.09-.25-.3-.23-.47.02-.13.34-.7.43-.83Z"/>
  <path d="M83.42,69.57c-.26.26-.68.14-.62-.21.02-.12.46-.79.57-.88.24-.23.64-.13.57.22-.03.15-.4.75-.52.87Z"/>
  <path fill="#ffffff" d="M22.24,33.71c.02-.12.35-.66.44-.8.41-.68.97-1.34,1.56-1.87.67-.61,1.62-.88,2.49-1.07,1.76-.39,3.46-.43,5.26-.25.29.03.59.08.87.13.02-.09-.16-.1-.22-.12-1.46-.43-3.22-.63-4.73-.4-.66.1-1.3.32-1.94.48l.52-.29c1.07-.52,3.04-1.19,4.22-1.22.45-.01,1.18.1,1.64.17,2.39.34,4.7,1.05,7.01,1.68,0-.05-.06-.06-.1-.08-.53-.27-1.18-.52-1.74-.73-1.51-.57-3.08-1.05-4.69-1.2.01-.06.06-.06.11-.07.82-.09,2.32-.15,3.13-.06,1.15.13,3.02.76,4.13,1.18,1.14.43,2.2.98,3.26,1.55l-.15-.15c-1.07-.83-2.26-1.52-3.54-2l-1.63-.49c2.27.07,4.49.59,6.75.82,1.82.19,3.28.14,5.01-.46,1.56-.54,3.15-1.67,4.82-1.75,1.52-.07,2.96.57,4.4.85.7.13,1.48.09,2.16.25.42.1.88.37,1.31.47l.32.05h.68l-.73-.14-1.41-.46c-.05-.39-.16-.78.06-1.14.35-.59,1.4-.32,1.86,0,.6.41.82.85,1.6,1.04,1.55.37,2.8.46,4.31,1.14,1.58.71,3.04,2.03,4.7,2.36,1.36.27,2.61-.07,3.02,1.57.1.39.33,1.59.28,1.95-.11.9-1.36.6-1.96.58-.34-.01-1.05-.03-1.34.13-.14.08-.03.2.05.3.19.23.5.4.74.56.74.51,1.62.9,2.07,1.7.27.49.58,1.3-.04,1.66-.59.34-1.56-.18-2.19-.32-1.76-.39-3.2.18-4.88.54-.98.21-2.3.25-3.09.9-.29.24-.42.54-.75.73-.63.35-1.44.36-2,.87l2.05-.74c-.05.7.58,1.26,1.07,1.68.92.78,2.08,1.47,3.13,2.08.9.52,2.86,1.73,3.86,1.64.53-.04,1.07-.48,1.58-.49.12,0,.31.06.42.05.09,0,.21-.1.31-.12.35-.06.64.14.81.42.04.06.07.22.12.25.05.03.2.03.3.07.21.08.35.29.45.48.04.08.08.27.11.31.03.03.16.04.24.1.17.13.24.43.23.63-.02.73-.82,1.85-1.17,2.52-.39.75-.83,2.09-1.59,2.5-.21.11-.44.16-.67.24l-.76-.07.29.09.37.04c-.93.29-1.92-.62-2.66-.98-.44-.22-.99-.25-1.48-.37-.37-.09-.73-.23-1.11-.31-2-.45-4.1-.13-5.96-1.13-.78-.42-1.32-.95-1.94-1.55l-.02-.1h.13c-.14-.05-.17-.14-.17-.28-.01-1.78.62-3.38.86-5.11l-.03-.35c-.19,1.53-.88,2.96-1.09,4.48l-.07-.2c0,.23.01.47.03.71.03.4.04.6.03.99-.02,1.28.08,2.47-.07,3.75-.14,1.14-.49,2.5-.43,3.63.07,1.1.58,1.03,1.41,1.39.42.18.89.47,1.18.83.08.1.34.49.37.59.02.05.02.08-.02.12l-1.02.94c.44-.18.83-.56,1.09-.95h.04c.55.28,1.68.66,1.53,1.45-.05.29-.49.58-.78.61l-1.75.21h-.13c-.28-.06-.6-.03-.89-.03-1.18-.02-2.32-.2-3.45-.36-1.45-.21-2.5-.25-2.69-1.96-.17-1.5,0-3.12-.24-4.6-.19-1.21-.52-2.49-1.05-3.6-.42-.88-.74-1.51-1.03-2.47-.26-.89-.31-1.67-.46-2.57s-.36-1.26-.69-2.04c-.29-.7-.56-1.43-.62-2.2-.06,0-.03.07-.03.11-.03.7.17,1.46.39,2.12.14.4.35.82.45,1.23.18.69.2,1.47.33,2.18.12.63.32,1.23.46,1.84-.55-.61-1.33-.78-2.1-.97-1.23-.3-2.44-.56-3.65-.94-1.73-.54-3.49-1.36-5.16-2.03-1.17-.47-2.39-.87-3.62-1.14l.13.08c.8.4,1.86.64,2.63,1.06.04.02.06.07.1.08.02.27.08.53.15.79.29,1.1.66,2.19.97,3.28s.82,3.87,1.6,4.64c.4.39,1.07.34,1.6.5.5.15.84.39,1.16.8l-1.14-.1-.11.07,1.43.14c.39.17.74.6.75,1.03,0,.15-.07.29-.02.44-.41-.15-.92-.39-1.35-.43-.04,0-.12-.02-.11.03l1.61.55c.22.31.59.72.6,1.12,0,.21-.12.43-.12.64-.61-.65-1.38-1.22-2.26-1.45l1.28.78,1.03.79c.16.44.12.88-.29,1.16-.66.45-2.46.07-3.29.04s-1.62.03-2.43.17c-1.12.2-2.08.73-3.08-.14-.73-.63-.78-1.46-1.01-2.31-.48-1.76-1.61-3.35-2.71-4.77-1.17-1.5-2.57-2.82-3.54-4.47.26-.43.57-.85.85-1.28.46-.71.86-1.45,1.3-2.16s.99-1.42,1.43-2.16c.98-1.66,1.67-3.63,1.66-5.58-.05,0-.05.12-.06.16-.54,3.1-1.61,4.5-3.19,7.06-.5.8-.95,1.64-1.46,2.43-.64,1-1.37,1.93-2.17,2.8-.55.59-.84.56-1.48.89-.43.22-.57.79-.85,1.19-.85,1.2-2.13,2.23-3.18,3.25-.28.27-1.16,1.06-1.2,1.4-.04.32.12.4.36.55s.54.26.76.46c-.16.01-.32-.09-.48-.11-.04,0-.2-.03-.21.03.53.11,1.01.29,1.42.64.32.28.61.64.92.92l-.08.04c-.58-.33-1.16-.65-1.8-.84l-.1.02c.11,0,.2.07.3.12.72.38,1.4.82,2.12,1.18.17.18.28.45.25.7,0,.07-.04.21-.14.18-.04,0-.48-.37-.59-.44-.39-.25-1.09-.67-1.51-.79-.04-.01-.16-.05-.17.02l2.24,1.32c.07.11-.27.36-.35.42s-.24.07-.24.17h-.06s-.03-.08-.06-.12c-.33-.3-.68-.61-1.04-.87l1.04,1.02c-.72.13-1.47.14-2.19.1s-1.31-.15-1.96-.35c-.61-.18-.8-.42-1.29-.75-1.24-.83-3.73-2.06-4.2-3.52-.57-1.78.44-2.91,1.28-4.31,2.63-4.42,3.14-9.87,4.12-14.84.24-1.2.41-2.23,1.05-3.3.09-.15.51-.69.52-.8,0-.02,0-.05-.02-.05-.17.05-.74.87-.86,1.06-.25.41-.37.77-.54,1.2-.01.03.02.06-.05.05-.34-.29-.74-.43-.81-.94-.06-.44.15-1.53.49-1.83,1.68-1.45,3.82-2.3,5.98-2.81l.88-.19c-1.95.03-3.92.55-5.52,1.69-.5.35-.83.69-1.24,1.13-.04.04-.07.08-.13.08ZM60.27,30.15c.02-.35-.07-.73-.22-1.04-.06-.13-.27-.47-.37-.55-.04-.04-.07-.06-.13-.05l.4.7.32.94ZM58.88,28.84s-.09-.02-.09,0c.24.27.34.65.49.96.02.05.03.09.1.08-.03-.15-.08-.3-.14-.44-.04-.1-.3-.57-.36-.61ZM51.3,29.13l-1.64,1.12-.8.4c.74-.14,1.52-.57,2.08-1.07.05-.05.41-.39.36-.45ZM67.72,29.89c-.41-.25-.82-.59-1.32-.63l1.24.69h.06s.02-.06.02-.06ZM51,31.24c.44-.14.88-.61,1.11-1.01.13-.22.28-.55.31-.8l-.58.95c-.25.32-.53.6-.84.86ZM64.29,31.47c-.53-.43-1.04-.88-1.36-1.49l-.26-.55c-.03.16.05.37.12.53.18.46.48.87.88,1.17.17.13.42.3.62.35ZM58.32,30.36c.02-.2,0-.43,0-.63,0-.02-.05-.1-.03-.15h-.03c.03.07-.03.18-.03.21v.89s-.09.17,0,.18c.02-.16.09-.36.1-.51ZM57.04,31.47c.08.09.21-.42.22-.46.07-.36.05-.7-.02-1.06-.06,0-.03.07-.03.11-.02.48-.01.93-.16,1.4ZM53.21,31.3c.07,0,.12-.04.17-.08.3-.24.65-.7.63-1.1l-.11.3c-.05.07-.09.15-.14.23-.15.24-.36.45-.54.66ZM68.68,30.28l-.03-.1c-.01.2-.29.34-.41.49-.21.25.07.82.26,1.02.26.28.9.53,1.12.1.13-.26.03-.9-.09-1.16s-.56-.47-.85-.35ZM54.79,32.72c.13-.02.31-.2.41-.3.44-.43.85-1.06.87-1.68l-.2.47c-.27.56-.69,1.03-1.08,1.5ZM64.13,32.26l-.52-.29-1-.73s.24.29.28.33c.21.2.93.75,1.19.76.07,0,.05,0,.05-.07ZM37.38,35.46c-.24-1.26-.62-2.65-1.5-3.63-.08-.09-.2-.23-.31-.26.31.44.59.91.82,1.41.35.76.59,1.56.9,2.33.02.04.04.15.09.16ZM75.47,31.67c-.12-.08-.1.07-.07.15.16.47.77.88,1.26.9l-.46-.21c-.27-.16-.48-.41-.65-.67-.03-.04-.07-.17-.08-.17ZM64,33.54l-1.07-.66c-.12-.11-.26-.2-.39-.31-.11-.09-.21-.28-.36-.28.43.59,1.09,1.1,1.81,1.25ZM65.51,38.98c.01-.06-.01-.09-.05-.13-.14-.19-.41-.4-.58-.61-.81-1-1.42-2.19-2.01-3.33l-.33-.77c.18.97.62,1.96,1.14,2.8.32.51.8,1.16,1.23,1.57.18.17.4.32.59.48ZM34.14,43.27c.81-2.77,1.71-5.97.02-8.6.09.35.24.67.33,1.02.37,1.47.26,2.88.08,4.36-.13,1.05-.31,2.13-.48,3.18-.01.06,0,.04.06.04ZM56.08,35.16c-.15.01-.29.12-.42.19-.81.46-1.69,1.17-2.23,1.93-.5.71-.81,1.55-1.18,2.33.04.03.08,0,.11-.04.33-.51.61-1.06.93-1.57.4-.62.9-1.2,1.43-1.7.43-.4.91-.74,1.35-1.14ZM26.89,36.91c-.21.02-.42.16-.6.27-.78.46-1.45,1.19-1.96,1.93-.91,1.31-1.39,2.85-1.95,4.33.05.05.23-.29.25-.33,1.04-1.87,1.83-4.14,3.48-5.59.25-.22.54-.39.79-.61ZM30.52,45.81c.44-1.3.93-2.59,1.28-3.91.37-1.42.67-3.2.02-4.58-.05-.1-.16-.36-.27-.32.57,1.17.35,2.61.08,3.84-.36,1.66-.86,3.29-1.17,4.96l.07.02ZM47.47,40.43c-.06-.01-.1,0-.16.03-1.58.48-3.11,1.12-4.76,1.38l-1.75.28c1.77.08,3.45-.2,5.08-.87.53-.22,1.11-.48,1.58-.81ZM26.92,40.89c-.5.17-.99.5-1.4.82-1.78,1.4-2.84,3.57-4.04,5.44.08.02.08-.01.13-.05.2-.18.48-.59.66-.82,1.14-1.47,2.2-3.26,3.56-4.51.34-.32.73-.58,1.09-.87ZM26.43,49.92c.05.05.23-.29.25-.33.57-1.02,1.2-2.3,1.62-3.39.49-1.25.96-2.67.67-4.03-.06,0-.03.07-.03.11-.04,1.07-.2,1.7-.57,2.69-.61,1.66-1.37,3.26-1.94,4.94ZM50.54,42.21c-.48.12-.94.3-1.42.44-1.88.55-3.82.85-5.74,1.22.07.08.22.05.31.05,2.13-.08,4.19-.42,6.13-1.32.24-.11.51-.24.71-.39ZM66.08,43.14c-.06,0-.07-.02-.07.05.02.28.05.65.1.92,0,.04,0,.15.06.15.04-.38-.03-.75-.1-1.12ZM67.43,45.28v-.64c0-.11-.05-.43-.07-.55,0-.03-.02-.06-.02-.09-.05,0-.03.05-.03.08,0,.33.03.76.07,1.08,0,.03.01.12.06.12ZM50.7,44.29l-1.68.45-3.5.6c1.5.04,2.96-.09,4.36-.63.23-.09.54-.22.75-.34.04-.03.08,0,.06-.08ZM38.89,44.88h-.1v.03h.1v-.03ZM36.13,45.1s0-.07-.04-.05v.09c.19.12.37.26.54.4.79.67,1.48,1.48,2.16,2.25l.04.06-.13-.29c-.64-1.11-1.47-1.84-2.57-2.46ZM68.91,45.24s-.07-.02-.06.04c.08.46.09.93.16,1.39,0,.06-.02.06.07.05.03-.22-.05-1.36-.17-1.48ZM24.81,45.48l-.41.39c-.77,1.04-1.74,2.07-2.37,3.2-.02.04-.06.07-.05.13.07,0,.11-.06.15-.1.78-.8,1.45-1.83,2.12-2.73l.57-.9ZM40.54,49.17c-.05-.26-.18-.54-.29-.78-.39-.86-.91-1.7-1.59-2.37-.09-.09-.27-.26-.4-.28l1.16,1.56,1.12,1.86ZM51.33,45.94c-.13.01-.3.07-.42.12-.72.3-1.46.56-2.25.72-.2.04-.4.05-.6.1-.04,0-.11,0-.1.05,1.11.02,2.17-.26,3.14-.79l.22-.2ZM70.29,46.07h-.05s-.05.05-.05.05l.72,1.1c-.06-.41-.35-.72-.59-1.04-.03-.03-.03-.07-.03-.11ZM42.23,50.85c-.14-1.32-.67-2.58-1.42-3.67-.13-.18-.29-.42-.44-.58-.05-.05-.25-.28-.31-.23.64.92,1.14,1.94,1.6,2.97l.58,1.51ZM71.62,46.83c-.09-.02-.07.03-.05.1l.32.76c0-.3-.19-.57-.26-.86ZM77.06,48.31c.07-.09-.21-.24-.27-.28-.76-.47-1.82-.57-2.55.01-1.12.9-1.5,3.25-1.14,4.58.06,0,.03-.07.03-.11,0-.18-.03-.33-.03-.49,0-1.1.65-3.37,1.68-3.92.67-.36,1.65-.17,2.28.21ZM34.24,49.55c-.02.16.01.35,0,.51l.31-1.13c.13-.37.35-.7.55-1.03-.03-.05-.07.01-.1.03-.39.32-.71,1.13-.76,1.62ZM67.99,49.99l.69.41c.18.08.46.1.54-.11-.47.28-.82-.31-1.12-.53-.37-.26-.28.43-.63.46-.2.02-.58-.26-.74-.38-.13-.1-.56-.55-.65-.57-.23-.04-.21.22-.33.25-.33.1-.87-.36-1.08-.59-.04-.04-.26-.38-.31-.33.18.38.42.75.78.98.31.2.63.32.95.04.43.52,1.58,1.46,1.9.36ZM35.99,52.07c.04-1.13.14-2.29.51-3.36-.13.13-.24.34-.31.52-.3.75-.38,1.86-.27,2.66,0,.04.01.18.06.19ZM21.97,49.23h-.07v.03h.07v-.03ZM37.54,53.95c0-.93.12-1.85.23-2.77-.1.1-.14.3-.18.43-.14.55-.17,1.12-.15,1.69l.1.64ZM39.22,56.02l.1-2.47s-.05.06-.06.09c-.17.61-.19,1.54-.1,2.16,0,.05.02.2.06.22ZM17.52,56.55h-.07v.03h.07v-.03ZM19.66,59.29c-.07-.63-.43-1.31-.83-1.8-.32-.39-.78-.8-1.29-.91l.46.31c.51.42.88.98,1.23,1.54l.42.85Z"/>
  <path fill="#fe0304" d="M82.7,32.26v.43c-.24,1.29-1.21,2.43-2.25,3.17-.99.71-2.95,1.35-4.16,1.25-.21-.02-.13-.06-.23-.13-.35-.24-.75-.54-1.13-.72-.06-.03-.1-.06-.17-.04-.24-.16-.56-.33-.74-.56-.08-.1-.19-.21-.05-.3.44.18.9.24,1.36.31.75.11,1.12.14,1.87-.07,1.21-.34,2.52-.97,2.92-2.26.21-.67.14-1.5.73-1.97s1.43-.38,1.73.38l.14.51ZM76.6,36.74c1.17-.07,2.3-.49,3.26-1.15.85-.59,2.49-2.19,2.18-3.32-.08-.3-.33-.53-.66-.41l.29.06c.65.48.05,1.46-.31,1.95-.87,1.18-2.34,2.2-3.75,2.62l-1.01.25Z"/>
  <path fill="#ffffff" d="M68.74,30.42c.46-.11.59.6.6.93.01.29,0,.4-.33.33-.31-.07-.59-.45-.59-.76,0-.19.13-.46.32-.5ZM69,31.08c-.17.05-.11.4.06.39.23-.01.16-.26.05-.38-.03-.02-.07-.02-.11-.01Z"/>
</svg>
