<?xml version="1.0" encoding="UTF-8"?>
<svg xmlns="http://www.w3.org/2000/svg" version="1.1" viewBox="0 0 100 100">
  <!-- Generator: Adobe Illustrator 30.0.0, SVG Export Plug-In . SVG Version: 2.1.1 Build 123)  -->
  <defs>
    <style>
      .st0 {
        fill: #fff;
      }
    </style>
  </defs>
  <g id="Layer_1" focusable="false">
    <rect class="st0" x=".19" y="67.24" width="99.81" height="2.76"/>
    <rect class="st0" x=".19" y="64.47" width="99.81" height=".92"/>
    <rect class="st0" x=".19" y="12.59" width="99.81" height="2.76"/>
    <rect class="st0" x=".19" y="17.19" width="99.81" height=".92"/>
    <path class="st0" d="M93.44,54.6h-13.42v1.34h14.64v-5.06h-1.23v3.72h0ZM15.44,32.73c-.5-.21-1.12-.26-1.85-.26h-1.12v8.57c-.38.05-.78.08-1.23.09v-10h1.12c1.51,0,2.55.18,3.07,1.59M13.7,40.77v-6.96h1.12c.32,0,.61.01.89.04.08.53.12,1.16.12,1.92,0,3.15-.67,4.45-2.12,4.99M21.73,35.77c0-7.83-3.81-9.13-9.54-9.13h-6.85v26.62h5.91v-7.95c6.75-.15,10.49-2.13,10.49-9.55M24.19,38.45c0-3.94-.96-6.22-2.65-7.52.91,1.37,1.42,3.34,1.42,6.18,0,7.42-3.74,9.39-10.49,9.55v7.95h-4.68v1.34h5.91v-7.95c6.75-.15,10.49-2.13,10.49-9.55M26.1,53.27h5.98v-26.62h-5.98v26.62ZM28.56,55.94h5.98v-26.62h-1.23v25.28h-4.75v1.34h0ZM48.81,53.27h5.31v-26.62h-5.73v7.45c0,1.11.04,2.35.1,3.52-.04-.09-.08-.19-.12-.28l-3.6-8.02h-.63l3,6.69c.54,1.21,1.04,2.45,1.46,3.57.1,1.65.21,2.85.21,2.85,0,0-1.22-4.03-2.9-7.76l-3.6-8.02h-5.63v26.62h5.73v-8.02c0-3.35-.49-8.06-.49-8.06,0,0,.64,1.82,1.46,3.91.13,1.63.26,3.74.26,5.49v8.02h-4.5v1.34h5.73v-8.02c0-1.12-.05-2.38-.13-3.57.01.03.03.07.05.1l4.02,8.82h0ZM51.27,55.94h5.31v-26.62h-1.23v25.28h-4.69l.61,1.34h0ZM74.47,31.74l.7-5.1h-17.44v5.1h5.77v1.34h-3.31v1.34h3.31v18.85h5.91v-21.52h5.07ZM71.86,34.42h4.46v-5.1h-.11l-.52,3.76h-5.07v21.52h-4.68v1.34h5.91v-21.52h0ZM94.85,29.32h-1.35l-.33,3.72h-8.46v3.87h-1.23v-5.21h8.46l.45-5.06h-14.82v26.62h14.64v-5.06h-6.28v-4.06h7.34v-4.56h-1.23v3.23h-7.34v5.39h-1.23v-6.73h7.34v-4.56h-4.88v-2.54h8.46l.45-5.06h0Z"/>
    <path class="st0" d="M80.53,84.91c0,1.26-.53,1.46-1.67,1.46h-.49v-2.98h.47c1.17,0,1.68.22,1.68,1.52M80.26,80.22c0,1.2-.4,1.46-1.41,1.46h-.47v-2.67h.46c.97,0,1.43.17,1.43,1.21M82.94,85.02c0-2-1.28-2.39-2.21-2.55.86-.22,1.93-.64,1.93-2.42,0-2.45-1.56-2.8-3.85-2.8h-2.84v10.87h2.84c2.53,0,4.14-.28,4.14-3.11M74.26,84.8v-7.55h-2.41v7.5c0,1.18-.29,1.57-1.04,1.57s-1.06-.47-1.06-1.57v-7.5h-2.41v7.55c0,2.44,1.01,3.48,3.47,3.48s3.45-1.1,3.45-3.48M66.43,86.06h-3.04v-8.81h-2.41v10.87h5.22l.23-2.07h0ZM59.27,87.86v-1.99s-.98.39-1.88.39c-1.07,0-1.61-.76-1.61-3.57s.79-3.62,1.76-3.62c.74,0,1.74.39,1.74.39v-1.97s-.79-.39-1.87-.39c-1.41,0-4.04.54-4.04,5.59s2.13,5.59,3.83,5.59c1.27,0,2.08-.42,2.08-.42M43.76,84.37c0-.56.37-.96,1.17-1.6.58.89,1.75,2.61,2.52,3.62-.35.49-.84.94-1.42.94-.99,0-2.27-2.4-2.27-2.96M46.39,81.81c.84-.61,1.45-1.31,1.45-2.47s-.76-1.83-1.68-1.83c-1.23,0-2.14,1.13-2.14,2.47,0,.85.24,1.64.71,2.47-1.19.89-2.27,1.93-2.27,3.36,0,.89.76,2.51,2.27,2.51,1.38,0,2.03-.63,2.96-1.67.76,1.06,1.55,1.67,2.29,1.67,1.4,0,2.07-1.34,2.55-2.4l-.22-.14c-.37.52-.76,1.41-1.45,1.41s-1.55-1.32-2.14-2.09c.22-.38,1.01-1.71,1.3-1.74-.06.14-.11.31-.11.56,0,.35.26.85.78.85s.91-.38.91-1.03-.48-1.08-.95-1.08c-.78,0-1.14.63-2.09,2.23l-2.16-3.08h0ZM45.31,79.11c0-.75.41-1.22,1.08-1.22.63,0,1.1.73,1.1,1.46,0,1.08-.58,1.71-1.3,2.16-.41-.7-.89-1.5-.89-2.4M38.49,84.91c0,1.26-.53,1.46-1.67,1.46h-.49v-2.98h.47c1.17,0,1.68.22,1.68,1.52M38.22,80.22c0,1.2-.4,1.46-1.41,1.46h-.47v-2.67h.46c.97,0,1.43.17,1.43,1.21M40.9,85.02c0-2-1.28-2.39-2.21-2.55.86-.22,1.93-.64,1.93-2.42,0-2.45-1.56-2.8-3.85-2.8h-2.84v10.87h2.84c2.53,0,4.14-.28,4.14-3.11M32.22,84.8v-7.55h-2.41v7.5c0,1.18-.28,1.57-1.04,1.57s-1.06-.47-1.06-1.57v-7.5h-2.41v7.55c0,2.44,1.01,3.48,3.47,3.48s3.45-1.1,3.45-3.48M21.53,80.98c0,1.86-.57,2.14-1.87,2.19v-4.08h.46c.91,0,1.41.15,1.41,1.89M23.94,80.98c0-3.2-1.56-3.73-3.9-3.73h-2.8v10.87h2.41v-3.25c2.76-.06,4.28-.87,4.28-3.9"/>
  </g>
</svg>