<svg xmlns="http://www.w3.org/2000/svg" viewBox="0 0 100 100" fill="#ffffff" aria-hidden="true" focusable="false">
  <path d="M25.34,31.91c.55,5.79,2.85,10.74,7.09,14.73,4.25,3.99,9.34,5.98,15.16,6.12.03,5.36-2.7,12.77-9.4,17.48-7.33,5.16-16.89,5.39-24.38.84-7.44-4.52-10.64-12.21-10.71-18.32,5.81-.15,10.9-2.14,15.15-6.13,4.24-3.98,6.54-8.93,7.09-14.72Z"/>
  <path d="M52.38,52.77c5.84-.15,10.93-2.14,15.18-6.14,4.23-3.99,6.53-8.93,7.08-14.72.55,5.79,2.85,10.74,7.08,14.73,4.25,4,9.34,5.99,15.16,6.13.17.73-.32,4.04-.98,6.04-1.43,4.33-3.9,7.92-7.48,10.74-6.98,5.5-16.47,6.27-24.18,2.18-7.96-4.22-11.72-12.13-11.85-18.95Z"/>
  <path d="M72.39,27.91c-.05,6.04-3.18,13.36-9.95,17.84-7.28,4.81-16.54,4.89-23.81.5-7.27-4.39-10.64-11.91-10.76-18.34,5.81-.15,10.9-2.13,15.15-6.12,4.25-3.99,6.55-8.94,7.1-14.74.55,5.79,2.85,10.74,7.08,14.73,4.25,4,9.34,5.99,15.18,6.13Z"/>
  <path d="M50.03,55.58c.48,6.34,3.15,11.64,8.05,15.91-2.74-.23-5.4-.35-8.06-.34-2.66,0-5.31.13-8.03.37.67-.65,1.31-1.24,1.9-1.87.59-.63,1.16-1.29,1.67-1.99.53-.7,1.02-1.44,1.45-2.19.44-.76.83-1.55,1.18-2.35.35-.8.65-1.63.9-2.47.25-.83.44-1.68.6-2.53.16-.86.24-1.74.35-2.54Z"/>
  <polygon points="32.2 82.85 34.06 82.85 34.06 92.92 34.38 93.24 35.8 93.24 35.8 80.47 32.2 82.32 32.2 82.85"/>
  <path d="M43.76,85.17c-.88,0-1.74.29-2.32.77l-.09.08v.89l.22.36.22-.13c.6-.36,1.09-.51,1.64-.51,1.24,0,2.17,1.25,2.17,2.91s-.84,2.59-2.15,2.59c-.79,0-1.48-.39-1.99-1.12-.52-.75-.81-1.83-.81-3.02,0-1.55.45-2.93,1.31-4,.88-1.09,2.14-1.79,3.65-2.02l.21-.03v-.8l-.59-.43h-.1c-1.77.18-3.37,1.02-4.5,2.38-1.11,1.34-1.71,3.1-1.71,4.98,0,1.62.4,2.99,1.14,3.94.76.97,1.85,1.49,3.16,1.49,2.47,0,4.07-1.67,4.07-4.26,0-1.12-.35-2.14-.99-2.88-.65-.75-1.55-1.17-2.53-1.17Z"/>
  <path d="M51.18,91.86l1.99-2.34c1.66-1.91,3.22-3.72,3.22-5.57,0-.96-.39-1.83-1.1-2.43-.72-.61-1.71-.93-2.86-.93-1.09,0-2.35.33-3.15.83l-.17.11.56,1.57.28-.22c.66-.52,1.65-.79,2.3-.79s1.22.21,1.66.59c.41.36.64.83.64,1.33,0,1.22-.93,2.43-2.45,4.29l-3.77,4.62.22.37,2.17-.08,6.02.07.12-1.29-.36-.33-5.31.2Z"/>
  <path d="M63.44,80.6c-1.56,0-2.83.81-3.65,2.34-.62,1.16-.98,2.71-.98,4.27,0,3.96,1.77,6.42,4.62,6.42,1.39,0,2.56-.63,3.39-1.82.81-1.17,1.24-2.8,1.24-4.74,0-4.05-1.73-6.47-4.62-6.47ZM66.26,87.32c0,3.04-1,4.85-2.67,4.85-.87-.04-1.61-.54-2.13-1.45-.55-.95-.84-2.29-.84-3.88,0-1.47.24-2.69.69-3.54.53-1.01,1.22-1.22,1.71-1.22,1.16,0,2.03.6,2.59,1.79.57,1.22.66,2.69.66,3.45Z"/>
</svg>
